<svg xmlns="http://www.w3.org/2000/svg" viewBox="0 0 600 360"><rect width="600" height="360" fill="#dae2d4"/><path d="M0 160L600 120V360H0Z" fill="#a4b494"/><path d="M0 120H600V175H0Z" fill="#8f9c80"/><path d="M0 145H600M40 120V175M120 120V175M200 120V175M280 120V175M360 120V175M440 120V175M520 120V175" stroke="#c6cbb4" stroke-width="5"/><path d="M90 300L160 190H460L540 300Z" fill="#d3ccbb"/><path d="M110 275H520M130 245H500M145 220H480M220 190L200 300M320 190V300M420 190L440 300" stroke="#b5ad9b" stroke-width="3"/><circle cx="55" cy="110" r="70" fill="#78906c"/><circle cx="560" cy="90" r="80" fill="#849a70"/><rect x="38" y="320" width="250" height="26" rx="6" fill="#ffffffbb"/><text x="50" y="339" font-family="sans-serif" font-size="17" fill="#365044">Illustrated sample · Progress</text></svg>